<svg xmlns="http://www.w3.org/2000/svg" xmlns:xlink="http://www.w3.org/1999/xlink" viewBox="0 0 1920 1918.07"><defs><style>.cls-1{fill:#398af4;}.cls-2{fill:url(#linear-gradient);}.cls-3{fill:url(#linear-gradient-2);}</style><linearGradient id="linear-gradient" x1="204.94" y1="1463.66" x2="1826.6" y2="450.33" gradientUnits="userSpaceOnUse"><stop offset="0.19" stop-color="#398af4"/><stop offset="1" stop-color="#35e5ce"/></linearGradient><linearGradient id="linear-gradient-2" x1="437.94" y1="522.1" x2="809.49" y2="1052.73" gradientUnits="userSpaceOnUse"><stop offset="0" stop-color="#398af4"/><stop offset="1" stop-color="#35e1d0"/></linearGradient></defs><g id="EXPORT"><path class="cls-1" d="M178.79,457.61l-25-16.37c.9-1.4,1.8-2.8,2.75-4.2q7.16-11.07,14.69-21.93a963.32,963.32,0,0,1,133.53-155q22.68-21.25,46.73-41,18.76-15.44,38.35-29.94,10.37-7.69,20.93-15.1c1.5-1,3-2.11,4.53-3.15L434.09,198a.31.31,0,0,1,.09.12L443,210.78l7.16,10.33a181.15,181.15,0,0,1,25,85.76c3.6,106.2-83.13,193-189.38,189.71a181.44,181.44,0,0,1-80.23-21.5s-.05-.05-.07-.05l-10-6.55Z"/><path class="cls-1" d="M151.4,1115.82a183.26,183.26,0,0,1-56.5,33.74s0,0-.05,0c-12.29,2.59-23.56,5-33.6,7-7.33,1.57-14,3-20,4.2a.1.1,0,0,1-.07,0c-6.45,1.33-12,2.52-16.71,3.49-.23-1.11-.47-2.21-.71-3.32q-2.1-9.62-4-19.29A947.5,947.5,0,0,1,4,1017.05q-1.32-20.94-1.66-42-.15-6.53-.15-13.08c0-1.31,0-2.63,0-4A962.48,962.48,0,0,1,12.41,817.49q1.68-11.36,3.63-22.61c.22-1.31.43-2.59.67-3.89l17.89,3.39s0,0,0,0l25,4.77,34,6.45s0,0,.07,0c68.08,25.18,117.73,89.73,120.31,165.74A182.9,182.9,0,0,1,151.4,1115.82Z"/><path class="cls-1" d="M708.13,720.74C825.27,776.43,798.68,989.59,632.2,1034c-35.6,9.49-100.5,21.62-143.22,31.75-80.35,17.4-167.73,36-245.67,52.52q-16.41,3.45-32.17,6.81a183.09,183.09,0,0,0,74.11-153.73c-2-59.75-33.15-112.44-79.48-144.47l381.8,71.63C689.15,917.71,731.87,837,708.13,720.74Z"/><path class="cls-2" d="M1754.13,1489.12q-20.25,31.62-42.86,61.5a.1.1,0,0,0,0,.07,961.71,961.71,0,0,1-217.58,201.36L1048.79,1099.8a31,31,0,0,0-37.9-10.72l-.5.22a30.84,30.84,0,0,0-18.46,34.63L1152.77,1895a967.63,967.63,0,0,1-369.35,3.27L930.18,1124.5a30.83,30.83,0,0,0-19.07-34.3l-.53-.22a30.93,30.93,0,0,0-37.66,11.43L440,1761.5a961.77,961.77,0,0,1-232.24-211.19,2.31,2.31,0,0,1-.14-.19q-17.16-22.75-33.06-46.58s562.29-384.33,571.26-390.94c43.29-31.86,60.95-55.76,90.47-100.75,4.2-6.42,8.23-12.9,12.13-19.56A452,452,0,0,0,869.34,952q7.41-16.21,13.55-33.14a443.21,443.21,0,0,0,13.22-43q3-11.62,5.27-23.49a454.8,454.8,0,0,0,6.07-133.58c-2.94-28.78-125.53-604.27-145.32-697A967.29,967.29,0,0,1,1140,18.38c-17.8,93.26-126.81,664.41-128.81,679.15A454.72,454.72,0,0,0,1016.92,852c1.56,7.35,3.3,14.67,5.22,21.88A445.7,445.7,0,0,0,1036,917.17q6.4,16.89,14.09,33.14a438.2,438.2,0,0,0,21.46,40q5.87,9.75,12.22,19.16a452.61,452.61,0,0,0,101.06,107.06C1202,1129.55,1754.13,1489.12,1754.13,1489.12Zm163-531.16q0,5.12-.07,10.2v0a957.48,957.48,0,0,1-18.16,176.4L1744,1115.74l-444.56-81.56c-137.64-16.59-218.3-222.83-167.63-321.44,1.11-2.18,2.13-4.39,3.37-6.5l31.37-53.73L1415,274.83v0l74.56-113.67a963.52,963.52,0,0,1,222,204.58l.21.29a3.88,3.88,0,0,1,.26.31l1.26,1.68s0,0,0,0c.62.83,1.29,1.66,2,2.49a2,2,0,0,1,.24.28c0,.05.07.1.12.15C1842,533,1917.16,736.71,1917.16,958ZM1722.64,708.88a150.7,150.7,0,1,0-150.7,150.69A150.7,150.7,0,0,0,1722.64,708.88Z"/><path class="cls-3" d="M800.54,843.48C789,883.06,771,920.91,748.74,955.18c-26,40.08-67,68-113.7,78.5-33.29,7.45-41.22,9.68-52.68,12.18C705.76,974.66,691,878.44,691.81,867.6,696.68,800.06,611.75,745.29,558.3,706L317.9,548.67a177.64,177.64,0,0,0,24.78,2.49,185.5,185.5,0,0,0,35.93-2.37c89.13-14.65,156.62-93.41,153.44-187.34a181.23,181.23,0,0,0-2.87-26.55L774.7,688.42C807.81,742.1,816,790.65,800.54,843.48Z"/></g></svg>